<?xml version="1.0" standalone="no"?>
<!DOCTYPE svg PUBLIC "-//W3C//DTD SVG 20010904//EN"
 "http://www.w3.org/TR/2001/REC-SVG-20010904/DTD/svg10.dtd">
<svg version="1.0" xmlns="http://www.w3.org/2000/svg"
 width="700.000000pt" height="700.000000pt" viewBox="0 0 700.000000 700.000000"
 preserveAspectRatio="xMidYMid meet">
<metadata>
Created by potrace 1.11, written by Peter Selinger 2001-2013
</metadata>
<g transform="translate(0.000000,700.000000) scale(0.100000,-0.100000)"
fill="#000000" stroke="none">
<path d="M6610 6574 c-192 -29 -311 -65 -483 -147 -372 -178 -665 -495 -804
-867 -27 -73 -68 -239 -79 -315 -3 -27 -9 -59 -12 -70 -3 -11 -6 -1065 -7
-2342 l-2 -2323 153 0 154 0 0 828 0 828 663 -1 c364 0 668 1 674 3 9 3 13 39
12 133 0 71 -3 130 -7 130 -4 1 -306 2 -672 3 l-665 2 -1 1320 c-1 727 2 1341
6 1365 4 24 11 67 14 96 29 248 179 538 377 729 207 198 406 300 699 359 14 3
68 8 120 11 52 3 101 7 108 9 9 3 12 39 12 135 l0 131 -87 -2 c-49 -2 -126 -8
-173 -15z"/>
<path d="M2195 4939 c-173 -18 -225 -27 -370 -64 -398 -100 -739 -302 -1060
-629 -345 -351 -550 -757 -621 -1231 -25 -165 -25 -513 0 -675 87 -574 379
-1066 861 -1452 308 -246 676 -404 1070 -458 39 -5 90 -12 115 -15 57 -7 353
-7 400 -1 19 3 62 8 95 10 97 8 261 44 397 87 545 170 999 535 1250 1004 33
63 38 67 38 40 1 -16 1 -258 2 -537 l0 -508 154 0 154 0 0 33 c1 17 1 992 1
2166 l0 2135 -133 -1 c-73 -1 -142 -1 -154 -2 -20 -1 -20 -2 -20 -527 1 -289
-2 -527 -5 -529 -3 -2 -31 47 -62 108 -98 191 -260 389 -440 535 -287 235
-725 434 -1072 486 -22 4 -47 8 -55 11 -62 17 -426 26 -545 14z m515 -283
c394 -60 741 -233 1035 -515 209 -200 355 -399 468 -641 34 -74 96 -236 102
-270 1 -3 11 -45 22 -95 12 -49 25 -117 28 -150 4 -33 10 -77 15 -97 9 -42 6
-413 -4 -468 -3 -19 -9 -55 -12 -79 -17 -138 -85 -358 -161 -521 -149 -320
-444 -650 -763 -855 -193 -124 -491 -238 -680 -260 -25 -3 -56 -7 -70 -10 -75
-15 -295 -21 -431 -11 -97 7 -252 32 -313 50 -25 8 -46 12 -46 10 0 -10 -243
83 -333 128 -92 45 -275 158 -309 190 -7 7 -38 32 -68 54 -147 109 -376 370
-487 554 -129 215 -222 468 -248 680 -4 30 -11 77 -15 105 -10 64 -9 381 2
449 4 28 10 69 13 91 42 289 182 606 386 877 54 70 306 332 350 363 8 6 41 31
74 56 276 212 616 345 965 376 36 3 66 7 68 8 9 8 332 -6 412 -19z"/>
</g>
</svg>
