<svg id="Layer_1" data-name="Layer 1" xmlns="http://www.w3.org/2000/svg" viewBox="0 0 571.63 275.66"><defs><style>.cls-1{fill:#304d64;}</style></defs><title>Header-03</title><path class="cls-1" d="M29.74,143.32a16.68,16.68,0,0,1,7.62-11.16L33.6,130a113.61,113.61,0,0,1-3.43,24.12c-.58,2.27,2.48,4.41,4.17,2.43a39.43,39.43,0,0,0,8-14.66l-4.91-.67L38.07,154c.11,2.34,3.44,3.58,4.65,1.26l16-30.55-4.57-1.93a350.63,350.63,0,0,1-10.41,44.43c-.95,3.13,3.72,4.31,4.82,1.33l11-29.88H54.8A32.29,32.29,0,0,1,55,157.8l4.83,1.33A221.35,221.35,0,0,1,76.3,116.84l-4.57-1.93L54.21,176c-.77,2.68,3.23,4.47,4.57,1.93L86,126.07l-4.66-1.26a146.83,146.83,0,0,1-10.61,39.47c-1.23,2.89,2.9,5.48,4.32,2.53a586.43,586.43,0,0,1,31.63-57.54L102,108C98.65,134.28,76,155.06,78.26,182.52a2.52,2.52,0,0,0,4.66,1.26,447.43,447.43,0,0,0,42.68-70.7L121,111.15l-15.66,40.54c-1.06,2.73,3.12,4.23,4.57,1.92l20.73-32.9,10.1-16c2.34-3.71,7.93-16.62,13.58-15L152.85,86l-46.57,95.47c-1.17,2.39,2,5.31,3.92,3l74.89-86.43-3.93-3-36.37,57.68c-1.39,2.2,1.3,4.57,3.42,3.42a72.76,72.76,0,0,0,27-25.31l-4.32-2.53L151,165.23c-1.31,2.44,1.9,5.15,3.93,3l44.3-46.37-3.93-3-21.52,45c-1.16,2.44,1.85,5.2,3.93,3l34-35.47-3.93-3-18.19,35.42a2.51,2.51,0,0,0,3.92,3l31.54-29.49-4.18-2.44a30.11,30.11,0,0,1-6.15,11.79c-2.05,2.43,1.2,5.82,3.53,3.54a101.86,101.86,0,0,1,17.9-14l-3.76-2.16A16,16,0,0,1,229,145c-2,2.46,1.32,6,3.53,3.53a51.13,51.13,0,0,1,17-12.34l-3.67-2.83A170.82,170.82,0,0,1,234,164.54c-1.42,2.86,2.72,5.36,4.31,2.53a581.1,581.1,0,0,1,37.77-58.39l-4.32-2.53L243.69,163c-1,2.08,1.18,4.89,3.42,3.42a162.23,162.23,0,0,0,29.27-24.56l-3.93-3q-8.07,18.48-17.94,36.06c-1.34,2.38,2.07,5.31,3.93,3q33.93-41.76,64.85-85.84L319,89.57a408.68,408.68,0,0,1-26.46,49.22c-1.41,2.23,1.3,4.49,3.42,3.42l21.85-11.13-3.42-3.42Q297.2,161.76,277,194.2c-1.47,2.36,2.09,5.25,3.92,3l63.39-77-3.93-3L317.78,151.1c-1.82,2.74,2.43,5,4.32,2.53a193.31,193.31,0,0,1,39-38.59l-3.42-3.42Q332,154.46,302.89,195c-1.88,2.63,2.44,5.09,4.32,2.53A679.07,679.07,0,0,1,377.57,116l-3.92-3L336.35,166c-1.62,2.3,2.11,5.22,3.93,3A456.11,456.11,0,0,1,415,97.22l-3.42-3.42A874.57,874.57,0,0,1,356,165.11c-1.73,2,.6,5.72,3,3.92l39.75-29.51-3.67-2.83a86.21,86.21,0,0,1-13.95,26.9l4.32,2.53a512.68,512.68,0,0,1,72.76-84.67l-3.93-3q-24,42.29-51.72,82.33c-1.23,1.77.81,4.34,2.82,3.67a153.52,153.52,0,0,0,43-22.33l-3.42-3.42-23.43,32.62c-1.64,2.28,2.13,5.23,3.93,3a223.48,223.48,0,0,1,54.13-47.84l-3.42-3.42a109.65,109.65,0,0,1-18.69,28.77c-2.14,2.39,1.35,5.92,3.54,3.54a56.25,56.25,0,0,1,24.1-15.55l-2.82-3.67-15,25c-1.5,2.5,1.87,4.9,3.93,3a124.44,124.44,0,0,1,40.21-24.52l-3.07-3.08a42.1,42.1,0,0,1-9.82,18.1,2.51,2.51,0,0,0,3,3.92l31.14-17.27L529,138.54a20.73,20.73,0,0,1-8.23,13.07c-2.14,1.54-1,5.51,1.92,4.57l13.64-4.45-3.17-2.41a26.61,26.61,0,0,1-5.78,14.83c-1.21,1.52-.62,4.43,1.77,4.27l14.6-1c3.19-.22,3.21-5.22,0-5l-14.6,1,1.77,4.26a32.45,32.45,0,0,0,7.24-18.36,2.51,2.51,0,0,0-3.16-2.41l-13.64,4.44,1.93,4.57a25.58,25.58,0,0,0,10.53-16,2.53,2.53,0,0,0-3.67-2.82L499,154.31l3,3.93a47.46,47.46,0,0,0,11.1-20.3c.44-1.71-1.23-3.77-3.08-3.07a130.89,130.89,0,0,0-42.42,25.8l3.93,3,15-25a2.53,2.53,0,0,0-2.83-3.67,61.46,61.46,0,0,0-26.31,16.83l3.54,3.54a114.2,114.2,0,0,0,19.47-29.79c.94-2.1-1.11-4.87-3.42-3.42a227.94,227.94,0,0,0-55.15,48.62l3.93,3,23.42-32.62c1.43-2-1.43-4.89-3.42-3.42a148.8,148.8,0,0,1-41.78,21.83l2.83,3.67q27.66-40,51.72-82.32a2.51,2.51,0,0,0-3.93-3,519,519,0,0,0-73.54,85.67c-1.86,2.71,2.41,5,4.32,2.53A90.14,90.14,0,0,0,399.9,138c.61-1.94-1.89-4.15-3.67-2.82l-39.75,29.52,3,3.92a885.61,885.61,0,0,0,56.42-72.32c1.39-2-1.43-4.93-3.42-3.42a461.93,461.93,0,0,0-75.77,72.59l3.93,3L378,115.46c1.66-2.37-2-5-3.93-3A687.51,687.51,0,0,0,302.89,195l4.32,2.53Q336.31,157,362,114.14c1.21-2-1.34-5-3.42-3.42a201.52,201.52,0,0,0-40.76,40.38l4.32,2.53,22.63-33.91c1.55-2.33-2.11-5.24-3.93-3l-63.38,77,3.92,3q20.16-32.41,37.34-66.54a2.52,2.52,0,0,0-3.42-3.42L293.4,137.89l3.42,3.42a406.6,406.6,0,0,0,26.47-49.22A2.5,2.5,0,0,0,319,89.57Q288.45,133.1,254.9,174.4l3.93,3q9.87-17.58,17.94-36.06c1.05-2.41-1.82-5.27-3.93-3a156.32,156.32,0,0,1-28.25,23.77l3.42,3.42,28.11-56.85a2.5,2.5,0,0,0-4.32-2.53A582.15,582.15,0,0,0,234,164.54l4.31,2.53A178.47,178.47,0,0,0,250.7,134.7c.62-2.27-1.77-3.68-3.67-2.82A54.24,54.24,0,0,0,229,145l3.53,3.53a21.28,21.28,0,0,0,4.92-14.47,2.52,2.52,0,0,0-3.76-2.16,108.23,108.23,0,0,0-18.91,14.79l3.53,3.54a35.92,35.92,0,0,0,7.44-14,2.52,2.52,0,0,0-4.18-2.43L190,163.31l3.93,3,18.19-35.43c1.26-2.44-1.88-5.16-3.92-3l-34.06,35.48,3.93,3,21.52-45c1.16-2.44-1.85-5.21-3.93-3l-44.3,46.37,3.93,3,19.9-36.93a2.5,2.5,0,0,0-4.32-2.53,67.43,67.43,0,0,1-25.22,23.52l3.42,3.42,36.38-57.68c1.49-2.36-2-5.2-3.93-3L106.67,181l3.93,3q23.28-47.74,46.57-95.48a2.54,2.54,0,0,0-1.49-3.67c-4.63-1.32-8.28,1.2-11.11,4.76-4.9,6.16-8.71,13.48-12.9,20.14l-26,41.34,4.57,1.93,15.67-40.54c1-2.62-3.34-4.47-4.57-1.92a447.48,447.48,0,0,1-42.69,70.7l4.66,1.26C81,155.5,103.66,134.14,107,108c.34-2.62-3.47-3.17-4.66-1.26a586.27,586.27,0,0,0-31.63,57.53l4.32,2.53a155.76,155.76,0,0,0,11.29-42c.31-2.5-3.56-3.34-4.66-1.26L54.46,175.41,59,177.34l17.52-61.1c.77-2.67-3.25-4.49-4.57-1.93A228.65,228.65,0,0,0,55,157.8c-.86,3.11,3.92,4.42,4.83,1.33a37.16,37.16,0,0,0-.16-21.85,2.52,2.52,0,0,0-4.82,0l-11,29.88,4.82,1.33A348.92,348.92,0,0,0,59,124.06c.43-2.59-3.15-4.63-4.57-1.93l-16,30.56L43.07,154l-.64-12.73a2.51,2.51,0,0,0-4.91-.66A33.27,33.27,0,0,1,30.81,153L35,155.45A119.59,119.59,0,0,0,38.6,130a2.52,2.52,0,0,0-3.76-2.16A21.62,21.62,0,0,0,24.92,142c-.66,3.14,4.16,4.49,4.82,1.33Z"/><path class="cls-1" d="M503.7,163.26a11.78,11.78,0,0,0,1.24-8.91,2.51,2.51,0,0,0-3.07-1.75q-10.44,4.28-20.45,9.43l3.42,3.42a94.34,94.34,0,0,0,11.69-24c.74-2.31-2.55-4.33-4.18-2.43a187,187,0,0,1-23.9,23.27l3.92,3,13.32-30c1.11-2.52-1.72-5.05-3.93-3l-32.21,29.41,4.17,2.44c1.92-7.69,3.44-15.12,2.26-23-.31-2.05-2.91-2.14-4.18-1.1l-22.69,18.55,4.17,2.43,11.21-26.66c2.8-6.68,6.72-13.37,3.65-20.56-.63-1.48-2.93-1.57-3.93-.51a245.68,245.68,0,0,0-24.07,30.32l3.92-.5c-2.31-1.83,3.33-11.22,4.38-13.51q3.36-7.3,7-14.47,7.06-13.92,15.17-27.26l-4.32-2.52a388.56,388.56,0,0,0-19.68,51.86q-4,13.36-7,27c-.43,2-.53,4.53-1.34,6.37s-2,2.65-4,3.74a28.51,28.51,0,0,1-14.12,3.43l2.5,2.5c2.24-18.7,19.9-31.62,20-51a2.52,2.52,0,0,0-3.77-2.15A275.9,275.9,0,0,0,391,147.93l3.92,3a140.71,140.71,0,0,0,17.21-31c.94-2.35-2.58-4.19-4.18-2.43q-29.07,31.84-56.61,65.05l3.93,3a551.49,551.49,0,0,0,33.16-59.12c1.15-2.36-2-5.41-3.92-3q-15.39,19.51-32,38l4.17,2.44c5-34.17,28.68-61.88,34.95-95.69a2.53,2.53,0,0,0-4.18-2.44c-28.84,26.16-48.59,60.8-78.77,85.6l3.93,3a15,15,0,0,0,.82-12.22c-.57-1.58-2.9-2.69-4.18-1.1l-9.43,11.66,3.93,3a135.4,135.4,0,0,0,18.91-50.83c.42-2.7-3-4.47-4.57-1.93-13.18,20.9-26.67,42-45.89,57.89l3.93,3a189.54,189.54,0,0,0,13.26-28.63c.74-2-1.92-4-3.67-2.83a100,100,0,0,0-26.87,26.84c-1.83,2.7,2.44,5.06,4.32,2.52a154.69,154.69,0,0,0,19.77-36c.64-1.63-1-3.06-2.41-3.16-7.26-.55-11.61,5.67-15.55,10.84L246.41,158l4.57,1.93a60.71,60.71,0,0,0,.12-22.8,2.51,2.51,0,0,0-4.18-1.1l-22.75,25.16,3.93,3a124.73,124.73,0,0,0,11.73-32.13c.48-2.21-2.48-4.52-4.18-2.43a193.75,193.75,0,0,0-19.92,29.7l4.57,1.93a48.24,48.24,0,0,0,2.43-16.65,2.52,2.52,0,0,0-4.66-1.26l-21.72,33,4.31,2.53A75.19,75.19,0,0,0,211,151.53c.35-2.14-2.45-4.62-4.18-2.43a89.11,89.11,0,0,1-23.88,21.16l3.67,2.82a146.44,146.44,0,0,1,15.77-44.78c1.54-2.83-2.72-5.33-4.32-2.53q-17.38,30.42-33.08,61.77l4.57,1.92q5.06-20.42,10.13-40.85l5-20c1.35-5.46,3.08-10.86,1.26-16.4a2.54,2.54,0,0,0-3.68-1.49,162.83,162.83,0,0,0-32,24.86l3.92,3A190.55,190.55,0,0,0,171.55,108c1.08-2.39-1.89-5.34-3.92-3L123,155.62l3.93,3,16.33-29.57c1.32-2.38-2.07-5.32-3.92-3Q126,142.42,111.19,157.41l3.93,3q8.73-18.49,16.12-37.57c1-2.67-3.21-4.35-4.57-1.92Q112.62,146,96.27,169.73l4.57,1.93a359.28,359.28,0,0,0,10.57-43.76c.45-2.57-3.25-4.68-4.57-1.93A277.3,277.3,0,0,1,84.18,164.8l4.57,1.93a258.23,258.23,0,0,0,12.64-43.23,2.51,2.51,0,0,0-4.57-1.93L69.89,162l4.57,1.93,7.09-21.77c1-3.09-3.72-4.31-4.82-1.33A97.65,97.65,0,0,1,58.1,172l4.18,2.44,6.64-30.5c.56-2.62-3.31-4.63-4.57-1.93L39.52,195l4.66,1.26a426.71,426.71,0,0,1,3.06-63.52c.39-3.18-4.61-3.16-5,0a426.71,426.71,0,0,0-3.06,63.52c.06,2.31,3.55,3.63,4.66,1.27l24.82-53-4.57-1.92-6.63,30.5c-.5,2.27,2.41,4.42,4.18,2.43a104.34,104.34,0,0,0,19.91-33.35l-4.82-1.33L69.64,162.6c-.92,2.81,3.06,4.19,4.57,1.93l26.93-40.43-4.57-1.93A260.13,260.13,0,0,1,83.93,165.4c-1.1,2.8,3,4.09,4.56,1.92a276.28,276.28,0,0,0,22.67-38.82l-4.57-1.93A359.28,359.28,0,0,1,96,170.33c-.88,2.83,3,4.16,4.57,1.92q16.32-23.67,30.4-48.78l-4.57-1.93Q119.25,140,110.8,157.91c-1.16,2.46,1.81,5.17,3.92,3q14.84-15,28.12-31.35l-3.92-3-16.34,29.56c-1.33,2.4,2,5.23,3.93,3l44.65-50.69-3.92-3a192.6,192.6,0,0,1-17.44,30.71c-1.65,2.37,2,5,3.92,3a156.85,156.85,0,0,1,31-24.09L181,113.59c2,6.07-1.19,13.47-2.67,19.44l-4.48,18.05q-4.59,18.53-9.19,37.06c-.65,2.65,3.26,4.54,4.57,1.92q15.69-31.34,33.09-61.76L198,125.77a151.12,151.12,0,0,0-16.27,46c-.36,2,1.68,4,3.68,2.82a92.69,92.69,0,0,0,24.88-21.94l-4.17-2.43a71.78,71.78,0,0,1-9.78,26.19c-1.7,2.76,2.56,5.2,4.31,2.53l21.73-33-4.66-1.26a44.49,44.49,0,0,1-2.25,15.32c-.89,2.69,3.22,4.41,4.57,1.93a185.67,185.67,0,0,1,19.14-28.7L235,130.74a119.54,119.54,0,0,1-11.23,30.93c-1.28,2.41,1.94,5.23,3.92,3l22.76-25.16-4.18-1.1a53.71,53.71,0,0,1-.13,20.14,2.51,2.51,0,0,0,4.57,1.92l13.82-18.12c3.7-4.86,8.93-15.19,16-14.66l-2.41-3.17a150.12,150.12,0,0,1-19.27,34.76l4.32,2.52a93.33,93.33,0,0,1,25.07-25L284.61,134a182.16,182.16,0,0,1-12.76,27.43c-1.47,2.59,1.81,4.79,3.92,3,19.53-16.18,33.29-37.66,46.68-58.9l-4.57-1.92a131.84,131.84,0,0,1-18.41,49.63c-1.46,2.36,2.12,5.27,3.93,3l9.42-11.66-4.18-1.1a10,10,0,0,1-.31,8.37,2.51,2.51,0,0,0,3.92,3c30.19-24.81,49.94-59.45,78.78-85.6l-4.18-2.43c-6.27,33.8-30,61.51-35,95.69-.32,2.21,2.33,4.5,4.18,2.43q16.59-18.51,32-38l-3.92-3A552.19,552.19,0,0,1,351,183.05c-1.51,2.35,2.1,5.24,3.93,3q27.53-33.18,56.6-65.05l-4.18-2.43a136.12,136.12,0,0,1-16.69,29.84c-1.79,2.42,1.91,4.74,3.92,3a265.32,265.32,0,0,1,26.92-20.15l-3.76-2.16c-.12,19-17.79,32.36-20,51a2.51,2.51,0,0,0,2.5,2.5c6.78,0,16.9-1.9,21.54-7.54,2.32-2.82,2.35-8,3.14-11.49q1.72-7.71,3.78-15.34a379.08,379.08,0,0,1,22-60.51c1.32-2.87-2.63-5.33-4.32-2.52q-10.28,17-18.94,34.88c-2.72,5.64-5.63,11.36-7.82,17.22-1.18,3.17-2,6.8,1,9.19a2.54,2.54,0,0,0,3.92-.5,235.8,235.8,0,0,1,23.3-29.31l-3.93-.51c1.71,4-.69,8.45-2.22,12.11-1.41,3.38-2.83,6.74-4.25,10.12l-8.89,21.15c-1.08,2.57,2.51,3.79,4.18,2.43l22.7-18.56-4.18-1.1c1,6.94-.59,13.69-2.26,20.39a2.52,2.52,0,0,0,4.18,2.43l32.22-29.42-3.93-3-13.31,30a2.51,2.51,0,0,0,3.92,3,187.11,187.11,0,0,0,23.9-23.28l-4.18-2.43a88.83,88.83,0,0,1-11.18,22.83c-1.49,2.21,1.36,4.49,3.42,3.43,6.3-3.26,12.7-6.24,19.26-8.92l-3.08-1.75a5.61,5.61,0,0,1-.73,5c-1.55,2.83,2.76,5.35,4.31,2.53Z"/><path class="cls-1" d="M44.86,147.16,45,174c0,3,4,3.23,4.91.67a130.65,130.65,0,0,1,12.37-24.82L57.7,147.9l-9.18,26.39c-.87,2.51,2.45,4,4.18,2.44l24.88-22.45-4.18-1.11a49,49,0,0,1,1.1,26.34c-.53,2.29,2.42,4.38,4.18,2.43A244.48,244.48,0,0,0,97.57,158l-4.65-1.26a54.66,54.66,0,0,1-1.16,16.13c-.51,2.31,2.4,4.37,4.18,2.43q14.25-15.47,29.16-30.29l-4.18-2.43-1.19,8.17a2.56,2.56,0,0,0,2.41,3.17,13.41,13.41,0,0,1,12.51,13.42,2.53,2.53,0,0,0,4.27,1.77l36-38.61-4.27-1.77a59.21,59.21,0,0,1-7.11,26.57,2.51,2.51,0,0,0,3.93,3,186,186,0,0,0,22.78-25.7l-4.57-1.93-7,25.54c-.72,2.63,2.33,3.86,4.18,2.43l21-16.26-4.18-1.1a29.54,29.54,0,0,1-2.43,17.26c-.82,1.77.58,4.51,2.83,3.68,8-3,13.66-8.93,19.21-15.15,5.84-6.53,11.76-13.62,20.87-15.15l-3.08-3.08a359.89,359.89,0,0,1-13.59,46.4c-.71,1.94,1.38,3.4,3.08,3.07,19.51-3.76,28.58-24.41,40.14-38.24a148.44,148.44,0,0,1,52.31-39.67l-3-.39c2.9,3.32.62,8.14-.94,11.55-1.84,4-3.91,8-5.86,12l-11.73,24c-.86,1.76.61,4.49,2.83,3.67a81,81,0,0,0,30.38-19.78l-4.17-2.43a149.54,149.54,0,0,1-12.41,30.48c-1.33,2.45,1.88,5.11,3.92,3l26-26.45-4.18-2.43A67.66,67.66,0,0,1,329,153.54c-1.95,2.45,1.26,5.92,3.53,3.53a115.68,115.68,0,0,1,18.8-16l-3.67-2.83a121.24,121.24,0,0,1-7.6,22.41c-.89,2,1.2,5.13,3.42,3.42a336.23,336.23,0,0,0,35.31-31.31l-4.18-2.43A59.63,59.63,0,0,1,363.14,156a2.5,2.5,0,0,0,3.54,3.54l30.08-26.05-3.92-3a273.78,273.78,0,0,1-22.2,39.94c-1.56,2.32,2.18,5.29,3.93,3a151,151,0,0,1,64.16-48.25l-3.16-2.41A66.12,66.12,0,0,1,427,156.11a2.53,2.53,0,0,0,2.82,3.67l9.06-1.84-2.83-3.67L431,165.47c-1.14,2.48,1.76,5.11,3.93,3L457.26,147l-3.54-3.53c-4.58,4.78-11.11,5.67-17.31,7a48.47,48.47,0,0,0-18,7.45l3.42,3.42a109.12,109.12,0,0,1,15.44-19.59l-3.53-3.53-14,16.28,3.93,3A79.94,79.94,0,0,0,434.12,138c.62-1.67-1.35-3.8-3.07-3.08a100.94,100.94,0,0,0-24.53,14.6l3.93,3a50.87,50.87,0,0,1,10.88-14.35c2.15-2-.59-5.2-3-3.93a59.44,59.44,0,0,0-22.42,20.34c-1.46,2.23,1.33,4.48,3.42,3.42l37.29-18.83c11.92-6,24-13.08,37.58-14.14l-2.41-3.17a142,142,0,0,1-17.56,33.69c-1.33,1.9.87,4.11,2.83,3.67a63.8,63.8,0,0,0,21.22-9l-3.42-3.42-5.53,7.59c-1.49,2,1.4,4.73,3.42,3.42l21.89-14.21-3.67-2.82-3.68,8.81c-.79,1.89,1.43,3.44,3.08,3.07l13.53-3-3.16-2.41a5.69,5.69,0,0,1-1.27,5.1,2.5,2.5,0,0,0,3.53,3.54,83.1,83.1,0,0,1,18.1-11.8l-3-3.93-7.77,9.36a2.51,2.51,0,0,0,3,3.93l17.75-8.05-3.67-1.49c.86,1.45.64,2.94-.67,4.44-2.2,2.35,1.33,5.9,3.53,3.54a8.45,8.45,0,0,0,2-9.31,2.56,2.56,0,0,0-3.67-1.5l-17.75,8.05,3,3.93,7.77-9.36a2.51,2.51,0,0,0-3-3.93,87.75,87.75,0,0,0-19.11,12.58l3.53,3.54a10.9,10.9,0,0,0,2.74-8.64,2.54,2.54,0,0,0-3.17-2.41l-13.53,3,3.08,3.08,3.67-8.81c.85-2-2-3.94-3.67-2.83l-21.9,14.22,3.42,3.42,5.54-7.6c1.48-2-1.41-4.74-3.42-3.42a60.13,60.13,0,0,1-20,8.48l2.82,3.67a146.75,146.75,0,0,0,18.06-34.88,2.51,2.51,0,0,0-2.41-3.16c-13.25,1-24.89,7.14-36.55,13l-40.84,20.63,3.42,3.42a54.24,54.24,0,0,1,20.62-18.55l-3-3.93A54.93,54.93,0,0,0,406.13,150a2.51,2.51,0,0,0,3.93,3,92.1,92.1,0,0,1,22.32-13.32l-3.08-3.07a75.54,75.54,0,0,1-10,18.35c-1.67,2.28,2.08,5.18,3.92,3l14-16.29c2.08-2.41-1.24-5.85-3.53-3.53a114.9,114.9,0,0,0-16.23,20.59c-1.27,2.06,1.33,4.86,3.42,3.42,6.57-4.51,13.41-6.16,21-7.82,5.74-1.25,11.12-3.06,15.27-7.39a2.5,2.5,0,0,0-3.54-3.53L431.34,165l3.93,3,5.12-11.2a2.53,2.53,0,0,0-2.82-3.67L428.51,155l2.83,3.67a71.49,71.49,0,0,0,9.23-35.87c0-1.48-1.61-3-3.16-2.41A155.65,155.65,0,0,0,371,169.88l3.93,3A272.68,272.68,0,0,0,397.15,133a2.51,2.51,0,0,0-3.92-3L363.14,156l3.54,3.54a64.84,64.84,0,0,0,12.74-27.85c.45-2.33-2.32-4.33-4.18-2.43A327.61,327.61,0,0,1,341,159.77l3.42,3.42a127.73,127.73,0,0,0,8.1-23.6c.47-2-1.77-4.11-3.67-2.82A121.13,121.13,0,0,0,329,153.54l3.53,3.53a74.69,74.69,0,0,0,12.14-22c.85-2.41-2.49-4.14-4.17-2.43l-26,26.45,3.92,3a155,155,0,0,0,12.92-31.68,2.52,2.52,0,0,0-4.18-2.43A75.64,75.64,0,0,1,299,146.48l2.82,3.67,15.92-32.57c3.2-6.54,7.46-14.6,1.82-21a2.55,2.55,0,0,0-3-.39,151.9,151.9,0,0,0-50.11,36.75c-6.37,7.12-11.61,15-17.33,22.63-6.15,8.2-13.33,16-23.81,18l3.07,3.08a359.89,359.89,0,0,0,13.59-46.4,2.53,2.53,0,0,0-3.07-3.07c-18.09,3-23.8,24.25-40.08,30.3l2.82,3.67A35.33,35.33,0,0,0,204.53,140c-.33-2.08-2.88-2.1-4.18-1.1l-21,16.26,4.18,2.43,7-25.54c.8-2.9-3-4.11-4.56-1.93a179.84,179.84,0,0,1-22,24.69l3.93,3a65,65,0,0,0,7.79-29.09,2.52,2.52,0,0,0-4.27-1.76l-36,38.61,4.27,1.76A18.49,18.49,0,0,0,122.14,149l2.42,3.16,1.18-8.17c.34-2.32-2.24-4.36-4.18-2.44q-14.91,14.84-29.15,30.3l4.18,2.43a59.58,59.58,0,0,0,1.33-17.46,2.52,2.52,0,0,0-4.66-1.26A234.82,234.82,0,0,1,75.14,178.4l4.18,2.44a54.32,54.32,0,0,0-1.1-29,2.53,2.53,0,0,0-4.18-1.1L49.16,173.19l4.18,2.43,9.18-26.39c1-2.76-3.09-4.23-4.56-1.92a136.59,136.59,0,0,0-12.88,26L50,174l-.13-26.82c0-3.22-5-3.22-5,0Z"/><path class="cls-1" d="M67.39,109.46a592.14,592.14,0,0,0-30,68.12l4.91.67a143.59,143.59,0,0,1,5.21-46.84H42.71a128.13,128.13,0,0,1-1.35,46.48l4.91.66a105.11,105.11,0,0,1,8.93-45l-4.66-1.26a100.88,100.88,0,0,1-10.43,53.23h4.32A28.11,28.11,0,0,1,42,174.23c-.05-3.22-5-3.23-5,0l0,24.1h5a127.57,127.57,0,0,1,1.58-30.67L38.65,167a18,18,0,0,0,4.1,13.77c1.09,1.38,3.09.64,3.93-.51q9.27-12.7,17.39-26.18l-4.57-.6a35.94,35.94,0,0,1,.15,16.91c-.51,2.25,2.46,4.46,4.18,2.43L74.52,160.2l-3.92-.5a9.16,9.16,0,0,1,1.12,6.82c-.52,2.59,3.29,4.65,4.57,1.93A140.13,140.13,0,0,1,99.9,133.13l-4.27-1.77a91.87,91.87,0,0,1-7.91,29.91l4.57,1.93a47.46,47.46,0,0,1,8.54-14l-4.18-1.11a60,60,0,0,1,.53,12.7c-.16,2.64,3.37,3.18,4.66,1.26A224.07,224.07,0,0,1,146,113.37l-4.27-1.76c.58,12.77-4.89,24.26-10.44,35.43-.89,1.79.61,4.46,2.82,3.67l10.4-3.68-3.17-2.41A85,85,0,0,1,134.69,169a2.5,2.5,0,0,0,4.32,2.52l38.3-49.69L173,119.34a92.09,92.09,0,0,0-17,52.4c0,2.07,2.81,3.41,4.27,1.76a355.73,355.73,0,0,0,32.07-42.25L187.69,130a47,47,0,0,1-4.18,18.26c-1,2.2,1.09,4.7,3.42,3.42l10.53-5.77-3.76-2.16a28.63,28.63,0,0,1-2.65,12.35,2.5,2.5,0,0,0,4.32,2.52,75,75,0,0,1,17.34-16.53l-3-3.93a164.22,164.22,0,0,1-24.27,22.12l3.68,2.83a45.06,45.06,0,0,1,17-26l-3.67-1.49a25.9,25.9,0,0,1-1,13.32c-.86,2.62,2.4,3.84,4.18,2.43l28.6-22.62-4.18-2.43a109.36,109.36,0,0,1-9.52,27.67,2.51,2.51,0,0,0,3.92,3l21.25-19-3.93-.5A4.34,4.34,0,0,1,242,142c-1,2.78,3.08,4.19,4.57,1.92A138.54,138.54,0,0,1,274.46,113l-3.92-3Q257,138.37,241.61,165.87c-1.57,2.81,2.7,5.31,4.32,2.52a82.32,82.32,0,0,0,7.81-18c1.35-4.59,4.23-12.68,2.46-17.43-1.53-4.09-5.92-3.44-8.93-1.54-6,3.81-11.43,9.34-16.66,14.12l4.17,2.43a94.28,94.28,0,0,1,13.15-28.72c1.45-2.12-1.35-4.62-3.42-3.42a12.91,12.91,0,0,0-5.77,6.45c-1.22,2.87,2.63,5.38,4.31,2.52a18.78,18.78,0,0,0,2.72-9.22c.11-2.22-2.78-3.22-4.27-1.76A306.94,306.94,0,0,0,217,140.76l4.18,2.44a73.44,73.44,0,0,1,10.66-22l-4.57-1.92a63.54,63.54,0,0,1-6.87,17.52,2.53,2.53,0,0,0,2.82,3.67c7.08-1.76,12.61-6.44,19.3-9,3.87-1.5,9.64-2.79,13,.5,2.43,2.35,3.23,7.15,0,9.08l2.52,4.32,27.84-18.56L282.24,124A160.7,160.7,0,0,1,266,160c-1.48,2.44,1.92,5,3.93,3a576.54,576.54,0,0,0,54.24-62.38c1.79-2.38-1.92-4.8-3.93-3a238,238,0,0,0-49.69,61.11c-1.62,2.86,2.46,5.08,4.32,2.52A107.14,107.14,0,0,0,287.35,139a103.08,103.08,0,0,0,4.21-12.18q.92-3.31,1.61-6.69c.16-.77,2-9.84,3-8.75l.64,2.43a5.31,5.31,0,0,1,3.45-3.72l-2.82-3.67L277,153a2.54,2.54,0,0,0,2.82,3.67A40.89,40.89,0,0,0,300.73,146l-4.18-2.43A38.41,38.41,0,0,1,291,156.15c-1.6,2.38,2,5,3.93,3l8.93-9.15L300,147l-8.52,14.87a2.51,2.51,0,0,0,3.93,3A236.24,236.24,0,0,1,321.09,144l-3.68-2.83A108,108,0,0,1,306.47,162c-1.8,2.68,2.52,5.17,4.32,2.52a137.41,137.41,0,0,1,17.71-21.17l-3.93-3L310.34,163c-1.73,2.76,2.5,5.12,4.31,2.52a174.38,174.38,0,0,1,11.66-14.75c3.27-3.75.63-7.61.3-12.28A44.36,44.36,0,0,1,336.86,107c2-2.44-1.18-5.8-3.53-3.54l-7.41,7.11L330.1,113a11.69,11.69,0,0,1,5.06-7l-3-3.92A76.38,76.38,0,0,0,321.31,121c-.8,2,1.95,4,3.67,2.82l15.21-10.38-3.42-3.42-9.65,14.52c-1.37,2.05,1.36,4.79,3.42,3.42l10.32-6.87-3.42-3.42L319,142c-1.63,2.15,1.42,4.47,3.42,3.42l28.38-14.78-3.67-2.82a65.17,65.17,0,0,1-9.75,24.47c-1.54,2.35,2.08,5.22,3.92,3A79.6,79.6,0,0,1,361,138.5l-3.42-3.42a298.79,298.79,0,0,0-31.3,75.47c-.58,2.24,2.54,4.48,4.18,2.43l58.29-72.76-3.93-3-23,36.23c-1.58,2.5,1.88,4.85,3.93,3l40.68-36.11-4.18-2.43a62.27,62.27,0,0,1-8.94,17.73c-1.56,2.16,1.39,4.49,3.42,3.42l17.73-9.36-3.67-2.82a96,96,0,0,1-8,23.83,2.51,2.51,0,0,0,3.93,3q19-17.06,39.23-32.7l-4.26-1.77A32.9,32.9,0,0,1,437.47,157c-1.12,2,1.29,5,3.42,3.42l10.62-7.72-3.76-2.16A64.43,64.43,0,0,1,443,168.87a2.51,2.51,0,0,0,3.92,3c.87-.71,1.49,2.89,1.44,3.52a15.07,15.07,0,0,1-1.51,4.28,14,14,0,0,0-1.23,6.77,2.53,2.53,0,0,0,4.26,1.77l23.85-20.9-3.93-3-8.64,18.14c-1.14,2.39,1.93,5.31,3.93,3a239.76,239.76,0,0,1,21.28-21.37L482.22,163a12.08,12.08,0,0,1-2.28,9c-1.85,2.7,2.42,5,4.32,2.53l20.66-27.24-4.57-1.93a41.75,41.75,0,0,1-8,14.71l4.18,2.43,5.71-24c.46-2-1.79-4.14-3.68-2.82L453.63,167.2l3.42,3.42,7.57-16.21c1.37-2.92,3.86-7.11,1.43-10.19-3.26-4.14-10.12,1.23-6.19,5a2.54,2.54,0,0,0,3.53,0,258.49,258.49,0,0,1,38.06-30.33L497.78,116a12.31,12.31,0,0,0,7,14.49c4.2,1.72,7.78,1.49,9.23,6.84s-1.74,11.14-4.25,15.81a2.54,2.54,0,0,0,2.83,3.67l8.14-1.72-2.82-3.67a84.35,84.35,0,0,1-13.13,19l4.27,1.77a30.75,30.75,0,0,1,5-13.25c1.81-2.76-2.42-5-4.32-2.52l-6.39,8.32,4.57,1.93,4.58-28.27c.33-2-1.65-4-3.68-2.82l-14,8.33,3.67,2.83L503,134.58c1.12-3-3.71-4.32-4.82-1.33l-4.54,12.19c-.78,2.1,1.9,3.87,3.67,2.82l14-8.33-3.68-2.83-4.57,28.27a2.51,2.51,0,0,0,4.56,1.92l6.4-8.32-4.32-2.52a36.27,36.27,0,0,0-5.7,15.77c-.28,2.18,2.9,3.25,4.26,1.76a88.48,88.48,0,0,0,13.91-20,2.53,2.53,0,0,0-2.82-3.67L511.24,152l2.82,3.67c3.69-6.87,7.57-15.09,3.56-22.7a12.4,12.4,0,0,0-6.34-6c-1.77-.68-3.76-.52-5.42-1.5a7.33,7.33,0,0,1-3.26-8.15c.52-2-1.78-4-3.67-2.82a263.82,263.82,0,0,0-39.07,31.12h3.53c.26.24-5.26,10.88-5.88,12.21l-4.78,10.24c-1,2,1.17,5,3.42,3.42l44.92-31.46-3.68-2.83-5.7,24c-.53,2.26,2.48,4.46,4.18,2.43a48.15,48.15,0,0,0,9.3-16.91c.92-2.92-3-4-4.57-1.93L479.94,172l4.32,2.53A17.23,17.23,0,0,0,487,161.67c-.29-2-2.93-2.2-4.18-1.1a241.11,241.11,0,0,0-21.28,21.37l3.93,3,8.64-18.13a2.51,2.51,0,0,0-3.93-3L446.38,184.7l4.27,1.77c-.55-5.89,5.39-10.5,1.58-16.34-2.18-3.34-5.71-4.31-8.81-1.77l3.92,3a72.27,72.27,0,0,0,5.41-20.87,2.52,2.52,0,0,0-3.77-2.16l-10.61,7.73,3.42,3.42a37.91,37.91,0,0,0,4.87-20.24c-.09-2.34-2.6-3.07-4.27-1.77q-20.2,15.65-39.24,32.7l3.93,3a100.76,100.76,0,0,0,8.52-25,2.54,2.54,0,0,0-3.67-2.83l-17.73,9.36,3.42,3.42a66.41,66.41,0,0,0,9.44-18.92c.8-2.52-2.41-4-4.18-2.44L362.2,172.92l3.93,3,23-36.24c1.49-2.34-2.13-5.27-3.92-3l-58.29,72.76,4.18,2.44A293.26,293.26,0,0,1,361.9,137.6a2.52,2.52,0,0,0-3.42-3.42,83.86,83.86,0,0,0-20.69,17.64l3.92,3A68.92,68.92,0,0,0,352,129.18a2.54,2.54,0,0,0-3.67-2.83l-28.39,14.79,3.42,3.42,18.43-24.34c1.53-2-1.42-4.74-3.42-3.42L328,123.67l3.42,3.42,9.65-14.52c1.36-2-1.37-4.82-3.42-3.42l-15.21,10.38,3.67,2.83a68.38,68.38,0,0,1,9.53-16.69c1.59-2-.43-5.63-3-3.93a17,17,0,0,0-7.35,10,2.52,2.52,0,0,0,4.18,2.44l7.4-7.11-3.53-3.54a49.54,49.54,0,0,0-10,44.91L324,146A168.14,168.14,0,0,0,310.34,163l4.31,2.52,14.24-22.74c1.53-2.43-1.92-5-3.93-3A144.39,144.39,0,0,0,306.47,162l4.32,2.52a113.64,113.64,0,0,0,11.44-22c.79-2-2-4-3.67-2.82a248.9,248.9,0,0,0-26.72,21.64l3.92,3,8.51-14.87c1.4-2.43-1.91-5.09-3.92-3l-8.94,9.15,3.93,3a42.23,42.23,0,0,0,6-13.78,2.52,2.52,0,0,0-4.18-2.43,36.16,36.16,0,0,1-18.73,9.37l2.83,3.67,20.47-46.58c.76-1.72-.55-4.6-2.82-3.68a11.26,11.26,0,0,0-6.94,7.22,2.5,2.5,0,0,0,.65,2.43c2.62,2.93,7.88,0,6.55-3.86-1.66-4.84-7.84-2.46-9.4,1s-1.65,8-2.62,11.74a102.4,102.4,0,0,1-3.68,11.45,104,104,0,0,1-13,23.44l4.32,2.52a233.31,233.31,0,0,1,48.91-60.09l-3.93-3a567,567,0,0,1-53.46,61.36l3.93,3a166.33,166.33,0,0,0,16.77-37.16c.63-2-1.85-4-3.67-2.83l-27.83,18.56c-2.66,1.77-.28,6,2.52,4.32,7.46-4.39,5.15-15.48-1.95-19-12.13-6-23.21,6.55-34.2,9.28l2.83,3.67a68.15,68.15,0,0,0,7.37-18.71,2.51,2.51,0,0,0-4.57-1.93,77.45,77.45,0,0,0-11.16,23.15c-.66,2.26,2.56,4.43,4.18,2.43A306.92,306.92,0,0,1,245,117.39l-4.27-1.77a13.58,13.58,0,0,1-2,6.7l4.31,2.52a8.74,8.74,0,0,1,4-4.65l-3.42-3.42A98.2,98.2,0,0,0,230,146.68a2.52,2.52,0,0,0,4.18,2.43c3.69-3.36,7.43-6.65,11.28-9.83,1-.8,3.77-3.63,4.89-3.86,1.23-.76,1.62-.49,1.19.81-.16,1.5-.36,3-.62,4.47a76,76,0,0,1-9.27,25.17l4.32,2.52q15.38-27.49,28.93-55.94a2.51,2.51,0,0,0-3.93-3,142.64,142.64,0,0,0-28.67,32l4.57,1.93a9.83,9.83,0,0,0-.71-8.35,2.53,2.53,0,0,0-3.93-.51l-21.24,19,3.92,3a113.61,113.61,0,0,0,10-28.86,2.53,2.53,0,0,0-4.18-2.44l-28.6,22.63,4.18,2.43a31.41,31.41,0,0,0,.95-16,2.5,2.5,0,0,0-3.67-1.49,50.36,50.36,0,0,0-19.32,29c-.45,1.91,1.81,4.2,3.68,2.82a171.1,171.1,0,0,0,25.28-22.9c1.8-2-.57-5.62-3-3.93a82.67,82.67,0,0,0-19.14,18.33l4.32,2.52a34.55,34.55,0,0,0,3.33-14.87,2.53,2.53,0,0,0-3.77-2.15l-10.52,5.76,3.42,3.42A53.49,53.49,0,0,0,192.69,130c.08-2.58-3.37-3.25-4.66-1.26A345.22,345.22,0,0,1,156.74,170l4.27,1.77a87.36,87.36,0,0,1,16.3-49.87c1.89-2.67-2.41-5-4.32-2.53L134.69,169l4.32,2.52a93.09,93.09,0,0,0,7.37-26.94,2.5,2.5,0,0,0-3.16-2.41l-10.4,3.68,2.83,3.67c5.93-11.94,11.74-24.3,11.12-37.95a2.53,2.53,0,0,0-4.26-1.77,228.13,228.13,0,0,0-45,49.67l4.66,1.26a65.76,65.76,0,0,0-.71-14c-.28-1.84-3-2.43-4.18-1.11a54.42,54.42,0,0,0-9.82,16.23c-1,2.61,3.39,4.5,4.57,1.93a99.35,99.35,0,0,0,8.59-32.44c.2-2.16-2.86-3.29-4.26-1.77A144.61,144.61,0,0,0,72,165.92l4.57,1.93a14.8,14.8,0,0,0-1.62-10.68,2.52,2.52,0,0,0-3.93-.5l-10.7,12.6,4.18,2.44a41.9,41.9,0,0,0-.15-19.57,2.53,2.53,0,0,0-4.57-.59Q51.64,165,42.36,177.73l3.93-.51A13.23,13.23,0,0,1,43.65,167c.34-2.77-4.42-3.43-4.91-.66a133,133,0,0,0-1.76,32c.22,3.18,5,3.25,5,0l0-24.1H37a34.33,34.33,0,0,0,3.15,13.84c.76,1.68,3.52,1.58,4.32,0a106,106,0,0,0,11.11-55.76c-.16-2.21-3.56-3.75-4.66-1.27a111,111,0,0,0-9.61,47.51c.06,2.73,4.3,3.51,4.91.67a135.12,135.12,0,0,0,1.35-49.14c-.4-2.55-4.2-2.21-4.82,0a147.82,147.82,0,0,0-5.39,48.17,2.51,2.51,0,0,0,4.91.66A583.49,583.49,0,0,1,71.7,112c1.48-2.86-2.83-5.39-4.31-2.52Z"/></svg>