<?xml version="1.0" encoding="UTF-8" standalone="no"?>
<svg xmlns="http://www.w3.org/2000/svg" xml:space="preserve" viewBox="0 0 36 36" y="0px" x="0px" version="1.1">
  <g>
    <path d="M 23.59573,11.05799 V 33.45686 H 22.1353 v -5.5785 c -0.85451,1.88967 -2.12332,3.38331 -3.82716,4.4809 C 16.6043,33.45686 14.78654,34 12.84447,34 9.86665,34 7.31348,32.84583 5.19016,30.54314 3.06684,28.24045 2,25.47949 2,22.2546 c 0,-3.21358 1.06166,-5.9802 3.19016,-8.28855 2.12332,-2.30268 4.67649,-3.45686 7.65431,-3.45686 1.94207,0 3.80127,0.56012 5.58278,1.69166 1.77634,1.13154 3.01408,2.61952 3.71323,4.4809 v -5.62942 h 1.45525 z M 3.45525,22.30552 c 0,2.78925 0.93219,5.19943 2.80175,7.24186 1.86956,2.04244 4.08092,3.06082 6.64962,3.06082 2.56352,0 4.75935,-1.01838 6.58229,-3.06082 1.82295,-2.04243 2.73443,-4.45827 2.73443,-7.26449 0,-2.80057 -0.91666,-5.23339 -2.75514,-7.29279 -1.83849,-2.05375 -4.02913,-3.08911 -6.5823,-3.08911 -2.55316,0 -4.75934,1.04102 -6.6289,3.11174 -1.86438,2.08204 -2.80175,4.50354 -2.80175,7.29279 z" />
    <path d="m 33.95339,2 v 1.3918 c -1.76598,0 -3.25748,0.66195 -4.48487,1.99151 -1.23256,1.32956 -1.84366,3.00424 -1.84366,5.0297 V 23.50495 H 34 v 1.3918 h -6.38032 v 8.56011 H 26.15925 V 10.41301 c 0,-2.45544 0.76129,-4.46959 2.27868,-6.04809 C 29.96051,2.79208 31.79382,2 33.95339,2 Z" />
  </g>
</svg>
